/* XPM */
static char *_82cca49dcd24b2c928e91c1c63e85422JThAvPG9AOTHOgr[] = {
/* columns rows colors chars-per-pixel */
"36 36 13 1 ",
"  c None",
". c #A4EDFE",
"X c #AEBFBF",
"o c #66D0E9",
"O c #96AAAB",
"+ c #7E95A5",
"@ c #3AAAC4",
"# c #658592",
"$ c #507A83",
"% c #347E8C",
"& c #3F6778",
"* c #2A5B6A",
"= c #265D68",
/* pixels */
"                 @                  ",
"       @         @%       @         ",
"      @@@        o@       @@        ",
"     =..o       @oo%     @@oo@=     ",
"     .OO+ooo==  o.o@% ==ooo+OO@     ",
"     .&+OOO+.....o.ooooo+OOO+&o     ",
"     .&$+++OOOOXXXXXXOOOO+++$&o     ",
"     .&$#++++++++++++++++++#$&o@    ",
"    @o&$#++++++++++++++++++#$&o.@@%%",
"  @@o.&$#++++++++++++++++++#$&o@%%  ",
"    @o&$#++++++++++++++++++#$&o%    ",
"     o&$#++++++++++++++++++#$&o     ",
"     o*$#++++++++++++++++++#$*@     ",
"    @o*$#++++++++++++++++++#$*@     ",
"%%@@.o*$#++++++++++++++++++#$*%     ",
"  %%@o*$#++++++++++++++++++#$*%     ",
"    %@*$#++++++++++++++++++#$*@%    ",
"     o*&#++++++++++++++++++#&*o@%%  ",
"     @*&#++++++++++++++++++#&*@%    ",
"     @*&#++++++++++++++++++#&*o     ",
"     o*&$++++++++++++++++++$&*o     ",
"     =@*$++++++++++++++++++$*%=     ",
"     =@*$#++++++++++++++++#$*%@     ",
"      @*&#++++++++++++++++#&*%o%    ",
"      =%*$#++++++++++++++#$*@=%@%   ",
"     @%%*&#++++++++++++++#&*@   @@  ",
"    @%  @*$#++++++++++++#$*%      % ",
"   @     @*$#++++++++++#$*%@        ",
"         %%*$#++++++++#$*%o@        ",
"        @%%%*$$#++++#$$*%@oo@       ",
"        %%  %*&$$##$$&*@  @oo       ",
"       @@    %%*&&&&*@@     @o      ",
"      @@       %%%@@@        @      ",
"     @          @@@           @     ",
"                 @                  ",
"                 @                  "
};
