/* XPM */
static char *_68d94be200a4ea18e431705c3e441cbat6wEx4RBVa3xvxI[] = {
/* columns rows colors chars-per-pixel */
"36 36 19 1 ",
"  c None",
". c #101010",
"X c #3A2A0E",
"o c #282C2C",
"O c #684E1E",
"+ c #444444",
"@ c #515555",
"# c #626262",
"$ c #626868",
"% c #737777",
"& c #AE1A1A",
"* c #F40000",
"= c #8E9393",
"- c gray59",
"; c #959B9B",
": c #95A0A0",
"> c #C1C1C1",
", c #D8D8D8",
"< c white",
/* pixels */
"                                    ",
"         o@@@@@@@@@@@@@@@@o         ",
"         @;:;===;;;;:::;;;@         ",
"         @::;;===;;;;:;;;;@         ",
"         @:::;==;;;;;;;;;;@         ",
"         @:;:;;=;;;;;;;;:;@         ",
"         @:;;;;;;;;;;;;;::@         ",
"         @;;;;;;;;;;;;=;::@         ",
"         @===;;;;;;;;====:@         ",
"         ooo%===;;;====%ooo         ",
"        ooooo$%==;===%$ooooo        ",
"        ooooooo$====$ooooooo        ",
"         ooooooo%==%ooooooo         ",
"         .oooooo$$$$oooooo.         ",
"         o..&&**....**&&..o         ",
"         oo.&&**....**&&.oo         ",
"         o@o....====....o@o         ",
"         o$$@@oo====oo@@$$o         ",
"         o$$$$$@====@$$$$$o         ",
"         ++@$$$$====$$$$@++         ",
"     XX +--+@@$@====@$@@+--+ XX     ",
"     OX#->>-+@@o====o@@+->>-#XO     ",
" ######>-->>+@oo====oo@+>>-->###### ",
"#<>>>>,>>->-+ooo%%%%ooo+->->>,>>>><#",
"#<>>>>>,>>--+          +-->>,>>>>><#",
"#<,>>>>,>>-+            +->>,>>>>,<#",
"#<,>>>>>,>#X            X#>,>>>>>,<#",
" #<>>>>>,#OX            XO#,>>>>><# ",
" #<,>>>>>#OOX          XOO#>>>>>,<# ",
"  #<>>>># XOXX        XXOX #>>>><#  ",
"  #<,>>>#  XOX        XOX  #>>>,<#  ",
"   #<<,>#  XOXX      XXOX  #>,<<#   ",
"    ##<<#   XOX      XOX   #<<##    ",
"      ##     OXX    XXO     ##      ",
"              OX    XO              ",
"                                    "
};
